<svg display="none" xmlns="http://www.w3.org/2000/svg">
    <!-- Icon bold -->
    <symbol id="bold" viewBox="0 0 24 24" fill="none"
        stroke="currentColor" stroke-width="2" stroke-linecap="round" stroke-linejoin="round"
        class="lucide lucide-bold-icon lucide-bold">
        <path d="M6 12h9a4 4 0 0 1 0 8H7a1 1 0 0 1-1-1V5a1 1 0 0 1 1-1h7a4 4 0 0 1 0 8" />
    </symbol>
    <!-- Icon italic -->
    <symbol id="italic" viewBox="0 0 24 24" fill="none" stroke="currentColor" stroke-width="2"
        stroke-linecap="round" stroke-linejoin="round"
        class="lucide lucide-italic-icon lucide-italic">
        <line x1="19" x2="10" y1="4" y2="4" />
        <line x1="14" x2="5" y1="20" y2="20" />
        <line x1="15" x2="9" y1="4" y2="20" />
    </symbol>
    <!-- Icon underline -->
    <symbol id="underline" height="24" viewBox="0 0 24 24" fill="none"
        stroke="currentColor" stroke-width="2" stroke-linecap="round" stroke-linejoin="round"
        class="lucide lucide-underline-icon lucide-underline">
        <path d="M6 4v6a6 6 0 0 0 12 0V4" />
        <line x1="4" x2="20" y1="20" y2="20" />
    </symbol>
    <!-- Icon strike Through -->
    <symbol id="strikeThrough" viewBox="0 0 24 24" fill="none"
        stroke="currentColor" stroke-width="2" stroke-linecap="round" stroke-linejoin="round"
        class="lucide lucide-strikethrough-icon lucide-strikethrough">
        <path d="M16 4H9a3 3 0 0 0-2.83 4" />
        <path d="M14 12a4 4 0 0 1 0 8H6" />
        <line x1="4" x2="20" y1="12" y2="12" />
    </symbol>
    <!-- Icon eraser -->
    <symbol id="eraser" viewBox="0 0 24 24" fill="none"
        stroke="currentColor" stroke-width="2" stroke-linecap="round" stroke-linejoin="round"
        class="lucide lucide-eraser-icon lucide-eraser">
        <path
            d="M21 21H8a2 2 0 0 1-1.42-.587l-3.994-3.999a2 2 0 0 1 0-2.828l10-10a2 2 0 0 1 2.829 0l5.999 6a2 2 0 0 1 0 2.828L12.834 21" />
        <path d="m5.082 11.09 8.828 8.828" />
    </symbol>
    <!-- Icon align center -->
    <symbol id="alignCenter" viewBox="0 0 24 24" fill="none"
        stroke="currentColor" stroke-width="2" stroke-linecap="round" stroke-linejoin="round"
        class="lucide lucide-align-center-icon lucide-align-center">
        <path d="M17 12H7" />
        <path d="M19 18H5" />
        <path d="M21 6H3" />
    </symbol>
    <!-- Icon align left -->
    <symbol id="alignLeft" viewBox="0 0 24 24" fill="none"
        stroke="currentColor" stroke-width="2" stroke-linecap="round" stroke-linejoin="round"
        class="lucide lucide-align-left-icon lucide-align-left">
        <path d="M15 12H3" />
        <path d="M17 18H3" />
        <path d="M21 6H3" />
    </symbol>
    <!-- Icon align right -->
    <symbol id="alignRight" viewBox="0 0 24 24" fill="none"
        stroke="currentColor" stroke-width="2" stroke-linecap="round" stroke-linejoin="round"
        class="lucide lucide-align-right-icon lucide-align-right">
        <path d="M21 12H9" />
        <path d="M21 18H7" />
        <path d="M21 6H3" />
    </symbol>
    <!-- Icon align justify -->
    <symbol id="alignJustify" viewBox="0 0 24 24" fill="none"
        stroke="currentColor" stroke-width="2" stroke-linecap="round" stroke-linejoin="round"
        class="lucide lucide-align-justify-icon lucide-align-justify">
        <path d="M3 12h18" />
        <path d="M3 18h18" />
        <path d="M3 6h18" />
    </symbol>
    <!-- Icon list unordered -->
    <symbol id="listUnordered" viewBox="0 0 24 24" fill="none"
        stroke="currentColor" stroke-width="2" stroke-linecap="round" stroke-linejoin="round"
        class="lucide lucide-list-icon lucide-list">
        <path d="M3 12h.01" />
        <path d="M3 18h.01" />
        <path d="M3 6h.01" />
        <path d="M8 12h13" />
        <path d="M8 18h13" />
        <path d="M8 6h13" />
    </symbol>
    <!-- Icon list ordered -->
    <symbol id="listOrdered" viewBox="0 0 24 24" fill="none"
        stroke="currentColor" stroke-width="2" stroke-linecap="round" stroke-linejoin="round"
        class="lucide lucide-list-ordered-icon lucide-list-ordered">
        <path d="M10 12h11" />
        <path d="M10 18h11" />
        <path d="M10 6h11" />
        <path d="M4 10h2" />
        <path d="M4 6h1v4" />
        <path d="M6 18H4c0-1 2-2 2-3s-1-1.5-2-1" />
    </symbol>
    <!-- Icon format remove -->
    <symbol id="formatRemove" viewBox="0 0 24 24" fill="none"
        stroke="currentColor" stroke-width="2" stroke-linecap="round" stroke-linejoin="round"
        class="lucide lucide-remove-formatting-icon lucide-remove-formatting">
        <path d="M4 7V4h16v3" />
        <path d="M5 20h6" />
        <path d="M13 4 8 20" />
        <path d="m15 15 5 5" />
        <path d="m20 15-5 5" />
    </symbol>
    <!-- Icon code -->
    <symbol id="code" viewBox="0 0 24 24" fill="none"
        stroke="currentColor" stroke-width="2" stroke-linecap="round" stroke-linejoin="round"
        class="lucide lucide-code-icon lucide-code">
        <path d="m16 18 6-6-6-6" />
        <path d="m8 6-6 6 6 6" />
    </symbol>
    <!-- Icon Quote -->
    <symbol id="quote" viewBox="0 0 24 24" fill="none"
        stroke="currentColor" stroke-width="2" stroke-linecap="round" stroke-linejoin="round"
        class="lucide lucide-quote-icon lucide-quote">
        <path
            d="M16 3a2 2 0 0 0-2 2v6a2 2 0 0 0 2 2 1 1 0 0 1 1 1v1a2 2 0 0 1-2 2 1 1 0 0 0-1 1v2a1 1 0 0 0 1 1 6 6 0 0 0 6-6V5a2 2 0 0 0-2-2z" />
        <path
            d="M5 3a2 2 0 0 0-2 2v6a2 2 0 0 0 2 2 1 1 0 0 1 1 1v1a2 2 0 0 1-2 2 1 1 0 0 0-1 1v2a1 1 0 0 0 1 1 6 6 0 0 0 6-6V5a2 2 0 0 0-2-2z" />
    </symbol>
    <!-- Icon highlight -->
    <symbol id="highlight" viewBox="0 0 24 24" fill="none"
        stroke="currentColor" stroke-width="2" stroke-linecap="round" stroke-linejoin="round"
        class="lucide lucide-highlighter-icon lucide-highlighter">
        <path d="m9 11-6 6v3h9l3-3" />
        <path d="m22 12-4.6 4.6a2 2 0 0 1-2.8 0l-5.2-5.2a2 2 0 0 1 0-2.8L14 4" />
    </symbol>
    <!-- Icon sup script -->
    <symbol id="supscript" viewBox="0 0 24 24" fill="none"
        stroke="currentColor" stroke-width="2" stroke-linecap="round" stroke-linejoin="round"
        class="lucide lucide-superscript-icon lucide-superscript">
        <path d="m4 19 8-8" />
        <path d="m12 19-8-8" />
        <path
            d="M20 12h-4c0-1.5.442-2 1.5-2.5S20 8.334 20 7.002c0-.472-.17-.93-.484-1.29a2.105 2.105 0 0 0-2.617-.436c-.42.239-.738.614-.899 1.06" />
    </symbol>
    <!-- Icon sub script -->
    <symbol id="subscript" viewBox="0 0 24 24" fill="none"
        stroke="currentColor" stroke-width="2" stroke-linecap="round" stroke-linejoin="round"
        class="lucide lucide-subscript-icon lucide-subscript">
        <path d="m4 5 8 8" />
        <path d="m12 5-8 8" />
        <path
            d="M20 19h-4c0-1.5.44-2 1.5-2.5S20 15.33 20 14c0-.47-.17-.93-.48-1.29a2.11 2.11 0 0 0-2.62-.44c-.42.24-.74.62-.9 1.07" />
    </symbol>
    <!-- Icon arrow down -->
    <symbol id="arrowDown" viewBox="0 0 10 6" fill="none">
        <path d="M5 6L0 1L0.7 0.300003L5 4.6L9.3 0.300003L10 1L5 6Z" fill="currentColor" />
    </symbol>
    <!-- Icon trash -->
    <symbol id="trash" viewBox="0 0 24 24" fill="none"
        stroke="currentColor" stroke-width="2" stroke-linecap="round" stroke-linejoin="round"
        class="lucide lucide-trash2-icon lucide-trash-2">
        <path d="M10 11v6" />
        <path d="M14 11v6" />
        <path d="M19 6v14a2 2 0 0 1-2 2H7a2 2 0 0 1-2-2V6" />
        <path d="M3 6h18" />
        <path d="M8 6V4a2 2 0 0 1 2-2h4a2 2 0 0 1 2 2v2" />
    </symbol>
</svg>